<mxfile host="app.diagrams.net" modified="2023-11-20T16:02:48.755Z" agent="Mozilla/5.0 (Windows NT 10.0; Win64; x64) AppleWebKit/537.36 (KHTML, like Gecko) Chrome/119.0.0.0 Safari/537.36 Edg/119.0.0.0" etag="Ol-_Wlyv02oB_a5Ta4_4" version="22.1.3" type="github">
  <diagram name="第 1 页" id="pR2CvmZpHDpMrfUjj5Pc">
    <mxGraphModel dx="792" dy="446" grid="1" gridSize="10" guides="1" tooltips="1" connect="1" arrows="1" fold="1" page="1" pageScale="1" pageWidth="827" pageHeight="1169" math="0" shadow="0">
      <root>
        <mxCell id="0" />
        <mxCell id="1" parent="0" />
        <mxCell id="wleDwTEwPIvJDNHKYaG6-1" value="&lt;b&gt;&lt;font style=&quot;font-size: 18px;&quot;&gt;初始頁面&lt;/font&gt;&lt;/b&gt;" style="rounded=1;whiteSpace=wrap;html=1;labelBackgroundColor=none;fillColor=#182E3E;strokeColor=#FFFFFF;fontColor=#FFFFFF;align=center;shadow=0;flipH=1;flipV=1;" parent="1" vertex="1">
          <mxGeometry x="40" y="120" width="160" height="80" as="geometry" />
        </mxCell>
        <mxCell id="TrA51zFJwwI40N64vbDh-1" value="&lt;span style=&quot;font-size: 18px;&quot;&gt;&lt;b&gt;個人資料頁面&lt;/b&gt;&lt;/span&gt;" style="rounded=1;whiteSpace=wrap;html=1;labelBackgroundColor=none;fillColor=#182E3E;strokeColor=#FFFFFF;fontColor=#FFFFFF;align=center;shadow=0;flipH=1;flipV=1;" vertex="1" parent="1">
          <mxGeometry x="320" y="120" width="160" height="80" as="geometry" />
        </mxCell>
        <mxCell id="TrA51zFJwwI40N64vbDh-2" value="&lt;b&gt;&lt;font style=&quot;font-size: 18px;&quot;&gt;答題端頁面&lt;/font&gt;&lt;/b&gt;" style="rounded=1;whiteSpace=wrap;html=1;labelBackgroundColor=none;fillColor=#182E3E;strokeColor=#FFFFFF;fontColor=#FFFFFF;align=center;shadow=0;flipH=1;flipV=1;" vertex="1" parent="1">
          <mxGeometry x="590" y="120" width="170" height="80" as="geometry" />
        </mxCell>
        <mxCell id="TrA51zFJwwI40N64vbDh-3" value="&lt;b&gt;&lt;font style=&quot;font-size: 18px;&quot;&gt;發問端頁面&lt;/font&gt;&lt;/b&gt;" style="rounded=1;whiteSpace=wrap;html=1;labelBackgroundColor=none;fillColor=#182E3E;strokeColor=#FFFFFF;fontColor=#FFFFFF;align=center;shadow=0;flipH=1;flipV=1;" vertex="1" parent="1">
          <mxGeometry x="880" y="120" width="160" height="80" as="geometry" />
        </mxCell>
        <mxCell id="TrA51zFJwwI40N64vbDh-26" value="&lt;b&gt;&lt;font style=&quot;font-size: 18px;&quot;&gt;登入&lt;/font&gt;&lt;/b&gt;" style="whiteSpace=wrap;html=1;align=center;strokeColor=#FFFFFF;fontColor=#FFFFFF;fillColor=#182E3E;strokeWidth=2;labelBackgroundColor=none;" vertex="1" parent="1">
          <mxGeometry x="80" y="270" width="120" height="50" as="geometry" />
        </mxCell>
        <mxCell id="TrA51zFJwwI40N64vbDh-30" value="&lt;span style=&quot;font-size: 18px;&quot;&gt;&lt;b&gt;註冊&lt;/b&gt;&lt;/span&gt;" style="whiteSpace=wrap;html=1;align=center;strokeColor=#FFFFFF;fontColor=#FFFFFF;fillColor=#182E3E;labelBackgroundColor=none;" vertex="1" parent="1">
          <mxGeometry x="80" y="390" width="120" height="50" as="geometry" />
        </mxCell>
        <mxCell id="TrA51zFJwwI40N64vbDh-31" style="edgeStyle=orthogonalEdgeStyle;rounded=0;orthogonalLoop=1;jettySize=auto;html=1;strokeColor=#23445D;entryX=-0.036;entryY=0.496;entryDx=0;entryDy=0;entryPerimeter=0;labelBackgroundColor=none;fontColor=default;" edge="1" parent="1" source="wleDwTEwPIvJDNHKYaG6-1" target="TrA51zFJwwI40N64vbDh-30">
          <mxGeometry relative="1" as="geometry">
            <mxPoint x="60" y="420" as="targetPoint" />
            <mxPoint x="70" y="210" as="sourcePoint" />
            <Array as="points">
              <mxPoint x="60" y="415" />
            </Array>
          </mxGeometry>
        </mxCell>
        <mxCell id="TrA51zFJwwI40N64vbDh-41" value="&lt;b style=&quot;border-color: var(--border-color);&quot;&gt;&lt;font style=&quot;border-color: var(--border-color); font-size: 18px;&quot;&gt;初始頁面&lt;/font&gt;&lt;/b&gt;" style="swimlane;fontStyle=0;childLayout=stackLayout;horizontal=1;startSize=40;horizontalStack=0;resizeParent=1;resizeParentMax=0;resizeLast=0;collapsible=1;marginBottom=0;whiteSpace=wrap;html=1;strokeColor=#23445d;fillColor=#bac8d3;labelBackgroundColor=none;swimlaneFillColor=none;rounded=1;" vertex="1" parent="1">
          <mxGeometry x="80" y="480" width="140" height="130" as="geometry" />
        </mxCell>
        <mxCell id="TrA51zFJwwI40N64vbDh-42" value="&lt;font color=&quot;#000000&quot;&gt;登入&lt;/font&gt;" style="text;strokeColor=none;fillColor=none;align=left;verticalAlign=middle;spacingLeft=4;spacingRight=4;overflow=hidden;points=[[0,0.5],[1,0.5]];portConstraint=eastwest;rotatable=0;whiteSpace=wrap;html=1;fontColor=#FFFFFF;labelBackgroundColor=none;swimlaneFillColor=none;rounded=1;" vertex="1" parent="TrA51zFJwwI40N64vbDh-41">
          <mxGeometry y="40" width="140" height="30" as="geometry" />
        </mxCell>
        <mxCell id="TrA51zFJwwI40N64vbDh-43" value="&lt;font color=&quot;#000000&quot;&gt;註冊&lt;/font&gt;" style="text;strokeColor=none;fillColor=none;align=left;verticalAlign=middle;spacingLeft=4;spacingRight=4;overflow=hidden;points=[[0,0.5],[1,0.5]];portConstraint=eastwest;rotatable=0;whiteSpace=wrap;html=1;fontColor=#FFFFFF;labelBackgroundColor=none;swimlaneFillColor=none;rounded=1;" vertex="1" parent="TrA51zFJwwI40N64vbDh-41">
          <mxGeometry y="70" width="140" height="30" as="geometry" />
        </mxCell>
        <mxCell id="TrA51zFJwwI40N64vbDh-44" value="Item 3" style="text;strokeColor=none;fillColor=none;align=left;verticalAlign=middle;spacingLeft=4;spacingRight=4;overflow=hidden;points=[[0,0.5],[1,0.5]];portConstraint=eastwest;rotatable=0;whiteSpace=wrap;html=1;fontColor=#FFFFFF;labelBackgroundColor=none;swimlaneFillColor=none;rounded=1;" vertex="1" parent="TrA51zFJwwI40N64vbDh-41">
          <mxGeometry y="100" width="140" height="30" as="geometry" />
        </mxCell>
        <mxCell id="TrA51zFJwwI40N64vbDh-46" value="&lt;span style=&quot;font-size: 18px;&quot;&gt;&lt;b&gt;個人資料頁面&lt;/b&gt;&lt;/span&gt;" style="swimlane;fontStyle=0;childLayout=stackLayout;horizontal=1;startSize=40;horizontalStack=0;resizeParent=1;resizeParentMax=0;resizeLast=0;collapsible=1;marginBottom=0;whiteSpace=wrap;html=1;strokeColor=#23445d;fillColor=#bac8d3;labelBackgroundColor=none;swimlaneFillColor=none;rounded=1;" vertex="1" parent="1">
          <mxGeometry x="230" y="430" width="140" height="130" as="geometry" />
        </mxCell>
        <mxCell id="TrA51zFJwwI40N64vbDh-47" value="&lt;font color=&quot;#000000&quot;&gt;已參與課程&lt;/font&gt;" style="text;strokeColor=none;fillColor=none;align=left;verticalAlign=middle;spacingLeft=4;spacingRight=4;overflow=hidden;points=[[0,0.5],[1,0.5]];portConstraint=eastwest;rotatable=0;whiteSpace=wrap;html=1;fontColor=#FFFFFF;labelBackgroundColor=none;swimlaneFillColor=none;rounded=1;" vertex="1" parent="TrA51zFJwwI40N64vbDh-46">
          <mxGeometry y="40" width="140" height="30" as="geometry" />
        </mxCell>
        <mxCell id="TrA51zFJwwI40N64vbDh-48" value="&lt;font color=&quot;#000000&quot;&gt;已創建課程&lt;/font&gt;" style="text;strokeColor=none;fillColor=none;align=left;verticalAlign=middle;spacingLeft=4;spacingRight=4;overflow=hidden;points=[[0,0.5],[1,0.5]];portConstraint=eastwest;rotatable=0;whiteSpace=wrap;html=1;fontColor=#FFFFFF;labelBackgroundColor=none;swimlaneFillColor=none;rounded=1;" vertex="1" parent="TrA51zFJwwI40N64vbDh-46">
          <mxGeometry y="70" width="140" height="30" as="geometry" />
        </mxCell>
        <mxCell id="TrA51zFJwwI40N64vbDh-49" value="&lt;font color=&quot;#000000&quot;&gt;人資料設定&lt;/font&gt;" style="text;strokeColor=none;fillColor=none;align=left;verticalAlign=middle;spacingLeft=4;spacingRight=4;overflow=hidden;points=[[0,0.5],[1,0.5]];portConstraint=eastwest;rotatable=0;whiteSpace=wrap;html=1;fontColor=#FFFFFF;labelBackgroundColor=none;swimlaneFillColor=none;rounded=1;" vertex="1" parent="TrA51zFJwwI40N64vbDh-46">
          <mxGeometry y="100" width="140" height="30" as="geometry" />
        </mxCell>
      </root>
    </mxGraphModel>
  </diagram>
</mxfile>
